<svg id="Layer_1" xmlns="http://www.w3.org/2000/svg" xmlns:xlink="http://www.w3.org/1999/xlink" viewBox="0 0 347.4 55.5" width="348" height="56"><style>.st0{clip-path:url(#SVGID_2_)}.st1{fill:#db3328}.st2{fill:#fff}.st3{fill:#0065bd}.st4{clip-path:url(#SVGID_4_)}.st5{clip-path:url(#SVGID_6_)}.st6{clip-path:url(#SVGID_8_)}</style><title>Give_Blood_Master</title><defs><path id="SVGID_1_" d="M-24.1-20.9h393.7V79.8H-24.1z"/></defs><clipPath id="SVGID_2_"><use xlink:href="#SVGID_1_" overflow="visible"/></clipPath><g class="st0"><path class="st1" d="M294.8 0c-5.4 0-10.5 2.7-13.6 7.2C278.1 2.7 273 0 267.5 0c-9.1 0-15.6 7.4-15.6 16.5 0 15.9 19.7 33.8 27 38.3 1.3 1 3.1 1 4.4 0 7.3-4.4 27-22.4 27-38.3 0-9.1-6.5-16.5-15.5-16.5"/><path class="st2" d="M293.5 6.1c2.6-.8 6.7 1 5.5 3.2-1.7 3-7.1-2.7-5.6-3.1"/><path class="st1" d="M254.1 0c-5.4 0-10.5 2.7-13.6 7.2-3.1-4.5-8.2-7.2-13.6-7.2-9.1 0-15.6 7.4-15.6 16.5 0 15.9 19.7 33.8 27 38.3 1.3 1 3.1 1 4.4 0 7.3-4.4 27-22.4 27-38.3 0-9.1-6.5-16.5-15.6-16.5"/><path class="st2" d="M252.9 6.1c2.6-.8 6.7 1 5.5 3.2-1.8 3-7.2-2.7-5.5-3.2"/><path class="st3" d="M35.1 54.2H24.7v-5.8c-.4.9-.9 1.8-1.5 2.6-3.1 3.9-8.2 4.1-9.6 4.1C9.3 55.1 2.4 53.2.8 43 .3 38.3 0 33.5 0 28.8c0-2.9.1-5.8.2-8.6.1-4 .3-7.7 2.3-11.2s6.3-7 15.3-7c1.7 0 8.6-.2 13.1 4.4 1.2 1.2 2.1 2.7 2.8 4.2 1 2.8 1.5 5.8 1.5 8.8l-12.9-.1c-.1-.8-.1-1.5-.2-2.4-.1-1.1-.5-4.4-4.3-4.4-1.2 0-3.2.3-4 3.2-.7 2.3-.7 7.2-.7 9.5v6.9c-.1 2.5-.3 8.2 1 10.4.7 1.3 2.1 2 3.5 2 1.1 0 2.1-.4 3-1 1.8-1.4 1.9-3.2 1.8-7.2V34h-5.5V23.9h18.2v30.3z"/></g><path class="st3" d="M41.6 2.8h12.9v51.4H41.6z"/><defs><path id="SVGID_3_" d="M-24.1-20.9h393.7V79.8H-24.1z"/></defs><clipPath id="SVGID_4_"><use xlink:href="#SVGID_3_" overflow="visible"/></clipPath><path class="st4 st3" d="M70.5 54.2L58.7 2.8H72l2.7 13.9c.8 4.4 1.5 8.9 2 13.4.4 3.9.7 7.9.9 11.8.2-3.9.5-7.8.9-11.7.4-3.7 1-7.2 1.6-10.9l3.2-16.5h13.3L84.4 54.2H70.5z"/><path class="st3" d="M101.1 54.2V2.8h27.7v10.4H114v9.3h13.1v10.2H114v11h14.8v10.5z"/><g><defs><path id="SVGID_5_" d="M-24.1-20.9h393.7V79.8H-24.1z"/></defs><clipPath id="SVGID_6_"><use xlink:href="#SVGID_5_" overflow="visible"/></clipPath><path class="st5 st3" d="M166.3 23.1c4 .1 6.2-.5 6.2-5.1 0-1.7 0-3.1-1.5-4.2-1.1-.9-2-.8-4.4-.9h-2V23h1.7v.1zm.1 21c3-.1 4.3-.2 5.5-1.3 1.2-1.2 1.4-2.8 1.4-4.5.1-1.2-.2-2.4-.7-3.4-.9-1.7-2.4-2-5.8-2.1h-2.2v11.4h1.8v-.1zm-14-41.3h13c8.9-.2 13.4.4 16.6 3.9 2.6 2.7 3.1 5.8 3.1 9.4.1 3-.6 5.9-2.1 8.5-.7 1-1.5 1.8-2.5 2.5-.6.4-1.4.7-2.1.9.9.2 1.7.4 2.5.8 2.7 1.3 5.2 4.6 5.2 11.1 0 1.2 0 8-4.5 11.6-3.7 2.8-9 2.8-13.4 2.8h-15.7V2.8z"/></g><path class="st3" d="M191.8 54.2V2.8h12.9v40.9h15.6v10.5z"/><g><defs><path id="SVGID_7_" d="M-24.1-20.9h393.7V79.8H-24.1z"/></defs><clipPath id="SVGID_8_"><use xlink:href="#SVGID_7_" overflow="visible"/></clipPath><path class="st6 st3" d="M328.8 44c.4 0 .9 0 1.3-.1 1.8-.1 3.2-1.3 3.7-3.1.6-2.3.6-7 .5-9v-6.7c.1-2.3 0-4.6-.2-6.9-.1-1.5-.4-3-1.4-3.9-1.1-.8-2.4-1.2-3.8-1.2h-2V44h1.9zM314.1 2.8h13.8c5.5 0 11.5.1 15.5 4.7 4 4.6 4 11.3 3.9 17V34c0 1.5 0 3-.1 4.4-.6 8.8-3.9 12.3-7.8 14.1-3.6 1.7-7.4 1.7-11.2 1.7h-14.1V2.8z"/></g></svg>