<svg id="Layer_1" xmlns="http://www.w3.org/2000/svg" xmlns:xlink="http://www.w3.org/1999/xlink" viewBox="0 0 382.4 52.8" width="382.4"><style>.st0{fill:none}.st1{fill:#db3328}.st2{fill:#fff}.st3{fill:#0065bd}.st4{clip-path:url(#SVGID_2_)}.st5{clip-path:url(#SVGID_4_)}.st6{clip-path:url(#SVGID_6_)}.st7{fill:#092869}</style><title>give-blood-duo-bw</title><path class="st0" d="M62.3-13.1h339.3v86.8H62.3z"/><path class="st1" d="M337.1 4.8c-4.7 0-9.1 2.3-11.7 6.2-2.7-3.9-7.1-6.2-11.8-6.2-7.8 0-13.5 6.4-13.5 14.2 0 13.7 17 29.1 23.3 33 1.1.9 2.7.9 3.8 0 6.3-3.8 23.3-19.3 23.3-33 0-7.8-5.6-14.1-13.4-14.2"/><path class="st2" d="M336 10.1c2.2-.7 5.8.9 4.7 2.8-1.4 2.6-6.1-2.3-4.7-2.8"/><path class="st1" d="M302.1 4.8c-4.7 0-9.1 2.3-11.7 6.2-2.7-3.9-7-6.2-11.7-6.2-7.8 0-13.5 6.4-13.5 14.2 0 13.7 17 29.1 23.3 33 1.1.9 2.7.9 3.8 0 6.3-3.8 23.3-19.3 23.3-33-.1-7.8-5.7-14.2-13.5-14.2"/><path class="st2" d="M301 10.1c2.2-.7 5.8.9 4.7 2.8-1.5 2.6-6.2-2.3-4.7-2.8"/><path class="st3" d="M113.3 51.6h-9v-5c-.3.8-.8 1.6-1.3 2.3-2.7 3.4-7.1 3.5-8.3 3.5-3.7 0-9.7-1.6-11-10.4-.4-4.1-.7-8.2-.7-12.2 0-2.5.1-5 .2-7.4.1-3.5.3-6.6 2-9.6s5.4-6 13.2-6c1.5 0 7.4-.2 11.3 3.8 1 1.1 1.8 2.3 2.4 3.6.9 2.4 1.3 5 1.3 7.6l-11.1-.1c-.1-.7-.1-1.3-.2-2.1-.1-1-.4-3.8-3.7-3.8-1.7-.1-3.2 1.1-3.4 2.8-.6 2-.6 6.2-.6 8.2v5.9c-.1 2.2-.3 7.1.9 9 .6 1.1 1.8 1.7 3 1.7.9 0 1.8-.3 2.6-.9 1.6-1.2 1.6-2.8 1.6-6.2v-2h-4.7v-8.7h15.7l-.2 26zM118.9 7.3H130v44.3h-11.1z"/><defs><path id="SVGID_1_" d="M62.3-13.1h339.3v86.8H62.3z"/></defs><clipPath id="SVGID_2_"><use xlink:href="#SVGID_1_" overflow="visible"/></clipPath><path class="st4 st3" d="M143.8 51.6L133.7 7.3h11.5l2.3 12c.7 3.8 1.3 7.7 1.7 11.5.3 3.4.6 6.8.8 10.2.2-3.3.4-6.7.8-10.1.3-3.2.9-6.2 1.4-9.4L155 7.3h11.5L156 51.6h-12.2z"/><path class="st3" d="M170.2 51.6V7.3h23.9v8.9h-12.8v8.1h11.3V33h-11.3v9.5h12.8v9.1z"/><defs><path id="SVGID_3_" d="M62.3-13.1h339.3v86.8H62.3z"/></defs><clipPath id="SVGID_4_"><use xlink:href="#SVGID_3_" overflow="visible"/></clipPath><path class="st5 st3" d="M226.4 24.8c3.4.1 5.3-.4 5.3-4.4 0-1.5 0-2.7-1.3-3.6-.9-.8-1.7-.7-3.8-.8h-1.7v8.7h1.5v.1zm.1 18c2.6-.1 3.7-.2 4.7-1.1.9-1.1 1.4-2.5 1.2-3.9.1-1-.1-2-.6-2.9-.8-1.5-2.1-1.7-5-1.8h-1.9v9.8l1.6-.1zM214.4 7.3h11.2c7.7-.2 11.6.3 14.3 3.4 2.2 2.3 2.7 5 2.7 8.1.1 2.6-.5 5.1-1.8 7.3-.6.8-1.3 1.6-2.1 2.1-.6.3-1.2.6-1.8.8.7.1 1.5.4 2.1.7 2.3 1.1 4.5 4 4.5 9.6 0 1 0 6.9-3.9 10-3.2 2.4-7.8 2.4-11.6 2.4h-13.5l-.1-44.4z"/><path class="st3" d="M248.4 51.6V7.3h11.1v35.2h13.4v9.1z"/><defs><path id="SVGID_5_" d="M62.3-13.1h339.3v86.8H62.3z"/></defs><clipPath id="SVGID_6_"><use xlink:href="#SVGID_5_" overflow="visible"/></clipPath><path class="st6 st3" d="M366.4 42.8c.4 0 .8 0 1.1-.1 1.5-.1 2.8-1.2 3.2-2.7.4-2.6.6-5.2.4-7.8v-5.8c.1-2 0-4-.2-6 0-1.2-.4-2.4-1.2-3.4-1-.7-2.1-1-3.3-1h-1.7v26.6h1.7zM353.8 7.3h11.9c4.7 0 9.9.1 13.4 4.1s3.5 9.7 3.4 14.6v8.2c0 1.3 0 2.6-.1 3.8-.5 7.6-3.4 10.6-6.7 12.1-3.1 1.5-6.4 1.5-9.6 1.5H354V7.3h-.2z"/><path class="st7" d="M60.1 48.9c.2 0 .3 0 .3-.3s-.2-.2-.4-.2h-.3v.5h.4zm-.4 1.3h-.5V48h.8c.6 0 .9.2.9.7 0 .3-.2.5-.5.6l.6.9h-.5l-.5-.9h-.2l-.1.9z"/><path class="st1" d="M39.4 17.2c-.6 1.3-1.3 2.5-2.2 3.7-1.3 1.7-2.7 3.3-4.3 4.8-.6.6-1.3 1.1-1.8 1.5l-1.8-1.5c-1.6-1.5-3-3-4.4-4.8-.9-1.1-1.6-2.4-2.2-3.7-.4-1-.7-2.1-.8-3.3 0-.8.2-1.6.6-2.4.4-.5.9-.9 1.5-1.2.5-.2 1-.3 1.5-.3 1.3 0 2.6.4 3.7 1.2.7.6 1.3 1.2 1.8 1.8.6-.6 1.2-1.2 1.9-1.8 1-.8 2.3-1.3 3.7-1.2.5 0 1 .1 1.5.3.6.3 1.1.7 1.5 1.2.4.7.6 1.5.6 2.4 0 1.2-.3 2.3-.8 3.3m2.5-7.1c-.6-.9-1.4-1.6-2.3-2.1-.9-.4-1.9-.6-2.9-.7-1.5 0-2.9.4-4.1 1.2-.5.3-1 .6-1.4 1-.5-.4-.9-.7-1.4-1-1.2-.8-2.7-1.2-4.1-1.2-1 0-2 .2-2.9.7-.9.5-1.7 1.2-2.3 2.1-.7 1.2-1 2.5-1 3.9s.3 2.7.9 4c.8 1.6 1.6 3.1 2.7 4.5 2.3 3.1 5.1 5.8 8.1 8.2 3.1-2.4 5.8-5.1 8.2-8.1 1-1.4 1.9-2.9 2.7-4.5.6-1.3.9-2.6.9-4-.2-1.5-.6-2.8-1.1-4"/><path class="st7" d="M47.3 49.5L31.1 35.3 14.8 49.5H19l12.1-10.6 12.1 10.6zM11.9 42.8L24.1 33l-12-10.4v-3.5L28.4 33 11.9 46.2zM50.3 46.2L33.8 33l16.3-13.9v3.5L38 33l12.3 9.8zM8.3 48.2c.3-.2.4-.5.2-.8l-.1-.1c-.2-.3-.5-.4-.6-.3-.1.1-.1.2-.1.3 0 .2.2.6.4 1.2.2.5 0 1-.4 1.2-.7.3-1.5.2-1.8-.4l-.1-.1c-.5-.5-.5-1.2 0-1.7l.2-.2.5.7c-.2.2-.3.5-.1.7v.1c.1.2.4.3.6.2.2-.2.1-.4-.1-1-.1-.3-.2-.7-.2-1 0-.3.2-.6.4-.8.6-.4 1.3-.2 1.9.7.5.5.5 1.3 0 1.8l-.2.2-.5-.7zM7.2 44.1c.5.8.2 1.9-.6 2.4-.1 0-.1.1-.2.1-.8.6-1.9.3-2.5-.5 0-.1-.1-.1-.1-.2-.4-.7-.3-1.6.4-2l.4.8c-.3.2-.3.6-.1.9.3.4 1 .5 1.4.2.5-.1.8-.7.6-1.2v-.1c-.2-.3-.5-.5-.9-.4l-.4-.8c.7-.3 1.6.1 2 .8M5 41.3c-.2-.5-.9-.7-1.3-.4h-.1c-.5 0-.9.5-.8 1s.5.9 1 .8c.2 0 .3-.1.5-.2.6-.3.9-.7.7-1.2m-2.9 1.1c-.4-.9 0-1.9.9-2.3.1-.1.2-.1.3-.1.9-.4 2 0 2.4.9.4.9 0 2-.9 2.4-.1 0-.1 0-.2.1-.9.4-1.9.1-2.4-.8 0 0 0-.1-.1-.2M2 39.3l.2 1-.7.2-.7-2.9.7-.2.3 1 2.8-.7.2.9zM.2 34.3l.5 3 .7-.1-.1-1 2.9-.4-.2-1-2.9.5-.1-1.1z"/><path transform="rotate(-4.571 2.011 33.444) scale(.99998)" class="st7" d="M.2 33h3.7v.9H.2z"/><path class="st7" d="M2.6 31.8c.3 0 .6-.2.6-.6v-.1c0-.4-.2-.6-.4-.6-.1 0-.2.1-.3.2-.1.2-.2.6-.4 1.2-.1.5-.5.8-1 .8-.7 0-1.2-.6-1.2-1.3v-.2c-.1-.7.3-1.3 1-1.4h.2v.9c-.3 0-.5.3-.5.6 0 .2.1.4.3.5.3 0 .3-.3.5-.9.1-.3.2-.6.4-.9.2-.2.5-.4.8-.4.7 0 1.2.5 1.2 1.6.1.7-.3 1.4-1 1.5h-.3v-.9zM.4 26.8l1.3.1-.2 1.3L.2 28l-.1 1 3.7.4.1-.9-1.6-.2.2-1.3 1.5.2.1-1-3.6-.4zM.9 23.9l.3-1 1.3-.3c.4-.1.9-.2 1.3-.3l-1.4-.4-.9-.3.3-.8 3.5 1-.3 1-1.4.3c-.3.1-.7.2-1.2.3.5.1.9.2 1.2.3l1.1.3-.2.8-3.6-.9z"/><path class="st7" d="M4.9 19.2L3.6 19l1 .9.3-.7zm-2-1l3.9.3-.4.9h-.7l-.5 1.1.5.5-.4.9-2.8-2.8.4-.9zM4.5 16.6l-.5.9-.6-.4 1.5-2.6.6.4-.5.9 2.6 1.4-.5.8z"/><path transform="rotate(-56.179 6.853 14.874)" class="st7" d="M6.4 13h.9v3.7h-.9z"/><path class="st7" d="M9.3 13.5c.3-.5.2-1.1-.3-1.4h-.1c-.4-.4-1-.5-1.4-.1-.3.4-.2 1 .2 1.3.1 0 .1.1.2.1.3.4 1 .5 1.4.1m-2.4-2c.6-.8 1.6-1 2.4-.4.1.1.2.1.2.2.8.5 1 1.7.5 2.5 0 .1-.1.1-.1.2-.6.8-1.6 1-2.4.4-.1-.1-.2-.1-.2-.2-.8-.5-1-1.6-.5-2.4 0-.1.1-.2.1-.3M8.6 9.7l.7-.7 1.4.4c.4.1.8.3 1.2.4-.5-.4-.8-.8-1-1l-.6-.7.6-.6 2.6 2.7-.7.7-1.4-.4c-.4-.1-.8-.2-1.2-.4.3.3.6.5.9.8l.8.8-.6.6-2.7-2.6z"/><path class="st7" d="M14.5 7.6l-1.1-.8.4 1.3.7-.5zm-1.3-1.9l3.2 2.2-.8.6-.6-.4-1 .7.2.7-.8.6-1.1-3.8.9-.6zM14.7 4.7l.9-.4L17 6.8l1.5-.9.4.7-2.4 1.3zM21.1 4.8c.4-.2.5-.3.4-.6-.1-.2-.3-.3-.5-.2h-.1l-.8.3.3.8.7-.3zm-.5-1.4c.2 0 .4-.2.3-.4v-.1c-.1-.2-.3-.3-.4-.2h-.1l-.7.3.3.7.6-.3zm-2.1-.7l1.7-.7c.8-.3 1.3-.2 1.5.4.2.3.1.7-.2.9.4-.1.8.2.9.6.1.4.1.8-.2 1.1-.3.3-.6.5-1 .6l-1.3.5-1.4-3.4zM22 1.4l.9-.2.7 2.8 1.7-.5.2.8-2.6.7zM27.1 3.4c.5-.1.9-.6.8-1.1 0-.1 0-.1-.1-.2.1-.5-.3-1-.8-1s-1 .3-1 .8c0 .2 0 .4.1.5 0 .5.3 1 .8 1 .1-.1.2-.1.2 0M26.7.3c1-.2 1.9.4 2.1 1.4V2c.1 1-.6 1.9-1.6 2.1-1 .1-1.9-.6-2.1-1.6-.2-.9.3-1.9 1.2-2.1.2 0 .3-.1.4-.1M30.9 3.1c.5 0 .9-.4.9-.9V2c.1-.5-.3-1.1-.8-1.1h-.1c-.5 0-.9.4-.9.9V2c-.1.5.3 1 .9 1.1m0-3.1c1-.1 1.8.7 1.9 1.6v.3c.2.9-.5 1.8-1.4 2H31c-1 .1-1.9-.6-2-1.6v-.4c-.1-1 .5-1.8 1.5-2 .1.1.2.1.4.1M34.3 3.2c.6.1.9-.2 1-1s-.1-1.1-.7-1.2h-.4l-.3 2.2h.4zm-1-3l1.6.2c.9 0 1.6.8 1.5 1.7v.3c0 .9-.7 1.6-1.5 1.6-.2 0-.3 0-.5-.1L33 3.7l.3-3.5zM38.8 1.8l-1-.3.2-.7 2.9.8-.2.8-1-.3-.8 2.8-.9-.3zM42.2 3.8c.2.1.5.1.6-.1 0 0 0-.1.1-.1.1-.3 0-.4-.3-.6l-.7-.2-.3.8.6.2zm-.9-2l1.6.7c.9.3 1.2.8.9 1.5-.1.4-.5.6-.9.6.3.2.3.6.1.9-.2.2-.2.5-.2.8v.1l-.9-.4c0-.3.1-.6.3-.9.1-.2 0-.5-.3-.6h-.1l-.6-.2-.5 1.3-.9-.4 1.5-3.4z"/><path class="st7" d="M45.5 6.2l.3-1.3-1 .9.7.4zm1.2-1.9L46 8.2l-.9-.5.1-.7-1.1-.6-.5.5-.9-.5 2.9-2.5 1.1.4z"/><path class="st7" d="M48.3 5.2l.8.6-.2 1.4c0 .4-.1.9-.2 1.3l.8-1.2.5-.8.7.6-2.2 2.9-.8-.6.2-1.4c0-.3.1-.7.2-1.2-.3.4-.5.8-.7 1l-.7.9-.7-.5 2.3-3zM50.2 9.9c-.2.2-.3.6 0 .8l.1.1c.3.3.5.3.7.2.1-.1.1-.2.1-.3-.1-.2-.3-.6-.6-1.1-.2-.4-.2-.9.1-1.3.5-.5 1.3-.4 1.7 0l.1.1c.6.4.7 1.2.3 1.8l-.1.1-.6-.5c.2-.2.2-.6-.1-.7-.1-.2-.4-.2-.6-.1-.2.2 0 .4.3 1 .2.3.3.6.4.9 0 .3 0 .6-.3.8-.5.5-1.2.4-2-.3-.6-.4-.7-1.2-.3-1.8 0-.1.1-.1.2-.2l.6.5zM53.9 10.1l1.7 2-.6.5-1.1-1.4-.6.6 1 1.1-.6.5-1-1.2-1 .9-.6-.7zM56.4 13.2l-1.9 1.3c-.3.1-.4.4-.3.7 0 .1.1.1.1.2.3.4.5.4.9.1l1.9-1.3.5.8-1.8 1.2c-.3.3-.8.4-1.2.4-.8-.3-1.3-1-1.3-1.9.1-.4.4-.8.8-1l1.8-1.2.5.7zM56.1 17.4c-.3.1-.4.5-.3.8 0 0 0 .1.1.1.2.3.4.5.6.4.1 0 .2-.2.2-.3 0-.2-.1-.6-.2-1.2-.1-.5.1-.9.5-1.2.6-.3 1.3 0 1.6.6 0 .1 0 .1.1.2.4.5.3 1.3-.2 1.7-.1 0-.1.1-.2.1l-.4-.8c.3-.1.4-.4.2-.7 0 0 0-.1-.1-.1-.1-.2-.3-.4-.5-.3-.2.1-.2.4 0 1 .1.3.1.7.1 1-.1.3-.3.5-.5.7-.6.3-1.3 0-1.8-.9-.4-.6-.4-1.4.2-1.8.1-.1.2-.1.3-.2l.3.9z"/><path transform="rotate(-22.819 57.96 19.769)" class="st7" d="M56.1 19.3h3.7v.9h-3.7z"/><path class="st7" d="M57.8 22.6c.2.5.7.7 1.2.6.1 0 .1-.1.2-.1.5 0 .9-.5.9-1v-.2c-.4-.6-1.1-.7-1.7-.4-.4.3-.6.7-.6 1.1m2.9-.9c.4 1-.1 2.1-1.1 2.5-1 .4-2.1-.1-2.5-1.1-.4-1 .1-2.1 1.1-2.5h.1c.9-.4 1.9 0 2.3.9.1 0 .1.1.1.2M61.3 24.1l.2 1-1.1.9c-.3.3-.7.5-1 .8l1.4-.3.9-.2.2.9-3.6.6-.2-1 1.1-.9 1-.8c-.5.1-.9.2-1.2.3l-1.1.2-.2-.9 3.6-.6zM59.6 30c-.3 0-.6.2-.6.6v.1c0 .4.2.6.4.6.1 0 .2-.1.3-.2.1-.2.2-.7.4-1.2.1-.5.5-.8 1-.8.7 0 1.2.6 1.2 1.3v.1c.1.7-.3 1.3-1 1.4h-.2V31c.3 0 .5-.3.5-.6 0-.2-.1-.4-.3-.5-.3 0-.3.3-.5.9-.1.3-.2.6-.4.9-.2.2-.5.4-.8.4-.7 0-1.2-.5-1.2-1.6-.1-.7.3-1.4 1-1.5h.3l-.1 1zM58.1 35.2l.8.1.1-1.9h.8l-.1 1.7.7.1.1-1.7.7.1-.2 1.8.8.1.2-2.8-3.6-.4zM59.8 37.4c-.1.4 0 .6.3.6s.4-.1.5-.4l.2-.7-.8-.2-.2.7zm1.9-1.3l-.4 1.8c-.2.9-.6 1.2-1.3 1.1-.4-.1-.7-.4-.8-.8-.2.3-.6.4-.9.3-.3-.1-.5-.1-.8 0h-.1l.2-1c.3 0 .7 0 1 .1.2 0 .5-.1.5-.4l.1-.6-1.2-.3.2-.9 3.5.7zM61 39.3l-.3.9-2-.1h-.8l.6.4 1.7 1.1-.3.9-3.1-2.4.3-.8H61z"/><path transform="rotate(-67.04 57.934 42.428)" class="st7" d="M57.5 40.6h.9v3.7h-.9z"/><path class="st7" d="M55.1 43.8c.4-.9 1.5-1.2 2.3-.8.1 0 .1.1.2.1.9.4 1.3 1.5.9 2.4 0 .1-.1.1-.1.2-.3.7-1.2 1.1-1.9.8l.4-.8c.3.1.7-.1.8-.4.2-.5-.1-1.1-.6-1.3-.4-.3-.9-.3-1.3 0 0 .1-.1.1-.1.2-.2.3-.1.7.2.9l-.3.9c-.7-.5-1-1.4-.5-2.2 0 .1 0 .1 0 0M57.3 47.5l-1.5 2.3-.6-.4 1-1.5-.5-.4-1 1.4-.6-.4 1-1.4-.7-.4-1.1 1.5-.6-.4 1.6-2.3zM58.6 49.1c0 .8.6 1.4 1.4 1.4.8 0 1.4-.6 1.4-1.4 0-.8-.6-1.4-1.4-1.4-.8 0-1.4.7-1.4 1.4m-.5 0c0-1 .9-1.9 1.9-1.9s1.9.9 1.9 1.9c0 1-.9 1.9-1.9 1.9-1 0-1.9-.8-1.9-1.9"/></svg>